# xmcd
#
# Track frame offsets:
#	150
#	11692
#	22810
#	39015
#	52499
#	66584
#	78711
#	91108
#	102095
#	112520
#	126492
#	135711
#	146488
#	158143
#	170360
#	180612
#	188149
#	201484
#	210926
#
# Disc length: 2959 seconds
#
# Revision: 0
# Processed by: cddbd v1.4PL0 Copyright (c) Steve Scherf et al.
# Submitted via: EasyCDDAExtractor 4.6.9.1
#
DISCID=020b8d13
DTITLE=RAYMOND ROULEAU - Ma Maison Dans Mon Valon
DYEAR=1900
DGENRE=
TTITLE0=Coeur De Maman
TTITLE1=Dans Tes Bras
TTITLE2=J'me Cherche Une Job
TTITLE3=La Grande Route
TTITLE4=L'amour Cause De La Peine 
TTITLE5=Le Plus Joli Reve
TTITLE6=Le Soir A Mexico
TTITLE7=Ma Maison Dans Mon Vallon
TTITLE8=Ma Petite Maison
TTITLE9=Pourquoi Cherie Pourquoi
TTITLE10=Si Mon Coeur Pres Du Tien
TTITLE11=Ton Jonc A Mon Doigt
TTITLE12=Tu ETait A La Gare
TTITLE13=Chanter C'est Ma Joie
TTITLE14=La Statue De Ste-Anne
TTITLE15=Le Temps Passer
TTITLE16=Lina
TTITLE17=Triste Souvenir
TTITLE18=Voyage Et Destin
EXTD=
EXTT0=
EXTT1=
EXTT2=
EXTT3=
EXTT4=
EXTT5=
EXTT6=
EXTT7=
EXTT8=
EXTT9=
EXTT10=
EXTT11=
EXTT12=
EXTT13=
EXTT14=
EXTT15=
EXTT16=
EXTT17=
EXTT18=
PLAYORDER=
